<mxfile host="app.diagrams.net" modified="2024-04-29T03:38:40.873Z" agent="Mozilla/5.0 (Windows NT 10.0; Win64; x64) AppleWebKit/537.36 (KHTML, like Gecko) Chrome/124.0.0.0 Safari/537.36 Edg/124.0.0.0" version="24.3.0" etag="tng4GBN5R7_ACRxdleZ7" type="github">
  <diagram name="PÃ¡gina-1" id="NsrDr1iVMwcxb8pooDCX">
    <mxGraphModel>
      <root>
        <mxCell id="0" />
        <mxCell id="1" parent="0" />
      </root>
    </mxGraphModel>
  </diagram>
</mxfile>
